<svg width="1435" height="301" viewBox="0 0 1435 301" fill="none" xmlns="http://www.w3.org/2000/svg">
<g clip-path="url(#clip0_19_2)">
<g clip-path="url(#clip1_19_2)">
<g clip-path="url(#clip2_19_2)">
<g clip-path="url(#clip3_19_2)">
<g clip-path="url(#clip4_19_2)">
<g clip-path="url(#clip5_19_2)">
<g clip-path="url(#clip6_19_2)">
<path d="M459.503 182.133L486.343 191.079C482.834 201.604 477.572 210.498 470.555 217.761C463.538 225.058 455.293 230.549 445.821 234.233C436.348 237.917 425.91 239.759 414.508 239.759C397.843 239.759 383.371 236.162 371.091 228.97C358.812 221.778 349.339 211.516 342.673 198.184C336.007 184.852 332.674 168.889 332.674 150.294C332.674 131.699 336.007 115.736 342.673 102.404C349.339 89.072 358.812 78.8099 371.091 71.6176C383.371 64.4253 397.755 60.8292 414.245 60.8292C425.647 60.8292 435.962 62.408 445.189 65.5656C454.381 68.7232 462.222 73.4595 468.713 79.7747C475.204 86.0898 480.203 93.9838 483.711 103.457L457.135 115.297C453.627 104.948 448.54 97.3519 441.874 92.5102C435.208 87.7037 426.524 85.3004 415.824 85.3004C405.123 85.3004 395.738 87.844 387.669 92.9313C379.599 98.0185 373.337 105.386 368.881 115.034C364.39 124.682 362.145 136.436 362.145 150.294C362.145 163.977 364.25 175.677 368.46 185.396C372.67 195.149 378.722 202.569 386.616 207.657C394.51 212.744 403.983 215.287 415.034 215.287C425.735 215.287 434.997 212.516 442.821 206.972C450.61 201.464 456.17 193.184 459.503 182.133ZM594.49 188.448V152.662C594.49 143.891 592.069 137.085 587.227 132.243C582.421 127.437 575.807 125.033 567.387 125.033C559.493 125.033 552.74 126.875 547.126 130.559C541.513 134.243 537.39 140.207 534.759 148.452L511.077 138.453C514.41 127.752 520.936 119.157 530.654 112.666C540.408 106.176 553.003 102.93 568.44 102.93C578.965 102.93 588.262 104.632 596.332 108.035C604.401 111.473 610.751 116.613 615.382 123.454C620.049 130.296 622.382 139.067 622.382 149.768V208.446C622.382 214.936 625.627 218.182 632.118 218.182C635.275 218.182 638.345 217.743 641.327 216.866L639.748 236.338C635.714 238.267 630.627 239.232 624.487 239.232C618.873 239.232 613.821 238.215 609.33 236.18C604.875 234.18 601.366 231.11 598.805 226.97C596.279 222.866 595.016 217.743 595.016 211.603V209.762L600.805 209.498C599.226 216.34 595.981 222.006 591.069 226.497C586.157 230.952 580.456 234.268 573.966 236.443C567.475 238.653 560.897 239.759 554.231 239.759C545.986 239.759 538.566 238.443 531.97 235.812C525.409 233.18 520.234 229.181 516.445 223.813C512.691 218.48 510.814 211.867 510.814 203.973C510.814 194.149 514.007 186.08 520.392 179.765C526.812 173.449 535.899 169.152 547.652 166.871L598.7 156.872L598.437 176.607L561.335 184.238C553.968 185.641 548.442 187.659 544.758 190.29C541.074 192.921 539.232 196.78 539.232 201.868C539.232 206.779 541.109 210.674 544.863 213.551C548.652 216.463 553.704 217.919 560.02 217.919C564.405 217.919 568.65 217.392 572.755 216.34C576.895 215.287 580.632 213.568 583.965 211.182C587.298 208.832 589.876 205.762 591.701 201.973C593.56 198.219 594.49 193.711 594.49 188.448ZM696.585 237.127H668.43V105.562H693.427L695.269 139.769L691.585 136.085C694.041 128.542 697.585 122.262 702.216 117.245C706.882 112.263 712.408 108.631 718.793 106.351C725.213 104.07 732.02 102.93 739.212 102.93C748.509 102.93 756.877 104.72 764.315 108.298C771.788 111.912 777.717 117.315 782.102 124.507C786.488 131.699 788.681 140.821 788.681 151.873V237.127H760.526V160.556C760.526 147.575 757.842 138.576 752.474 133.559C747.141 128.577 740.44 126.086 732.371 126.086C726.582 126.086 720.968 127.437 715.53 130.138C710.092 132.875 705.566 137.225 701.953 143.189C698.374 149.154 696.585 157.135 696.585 167.134V237.127ZM879.672 212.656L917.826 105.562H947.296L894.933 237.127H864.147L811.521 105.562H842.307L879.672 212.656ZM1047.29 188.448V152.662C1047.29 143.891 1044.88 137.085 1040.08 132.243C1035.23 127.437 1028.6 125.033 1020.18 125.033C1012.29 125.033 1005.54 126.875 999.923 130.559C994.309 134.243 990.187 140.207 987.555 148.452L963.874 138.453C967.207 127.752 973.75 119.157 983.503 112.666C993.222 106.176 1005.8 102.93 1021.24 102.93C1031.76 102.93 1041.06 104.632 1049.13 108.035C1057.2 111.473 1063.55 116.613 1068.18 123.454C1072.85 130.296 1075.18 139.067 1075.18 149.768V208.446C1075.18 214.936 1078.42 218.182 1084.91 218.182C1088.07 218.182 1091.14 217.743 1094.12 216.866L1092.54 236.338C1088.51 238.267 1083.42 239.232 1077.28 239.232C1071.67 239.232 1066.64 238.215 1062.18 236.18C1057.69 234.18 1054.18 231.11 1051.65 226.97C1049.09 222.866 1047.81 217.743 1047.81 211.603V209.762L1053.6 209.498C1052.02 216.34 1048.78 222.006 1043.87 226.497C1038.95 230.952 1033.25 234.268 1026.76 236.443C1020.27 238.653 1013.69 239.759 1007.03 239.759C998.782 239.759 991.38 238.443 984.819 235.812C978.223 233.18 973.048 229.181 969.294 223.813C965.505 218.48 963.61 211.867 963.61 203.973C963.61 194.149 966.821 186.08 973.241 179.765C979.626 173.449 988.696 169.152 1000.45 166.871L1051.5 156.872L1051.23 176.607L1014.13 184.238C1006.76 185.641 1001.24 187.659 997.554 190.29C993.871 192.921 992.029 196.78 992.029 201.868C992.029 206.779 993.923 210.674 997.712 213.551C1001.47 216.463 1006.5 217.919 1012.82 217.919C1017.2 217.919 1021.46 217.392 1025.6 216.34C1029.71 215.287 1033.43 213.568 1036.76 211.182C1040.09 208.832 1042.67 205.762 1044.5 201.973C1046.36 198.219 1047.29 193.711 1047.29 188.448ZM1242.27 182.133L1269.11 191.079C1265.6 201.604 1260.33 210.498 1253.32 217.761C1246.3 225.058 1238.06 230.549 1228.58 234.233C1219.11 237.917 1208.67 239.759 1197.27 239.759C1180.61 239.759 1166.13 236.162 1153.85 228.97C1141.57 221.778 1132.1 211.516 1125.44 198.184C1118.77 184.852 1115.44 168.889 1115.44 150.294C1115.44 131.699 1118.77 115.736 1125.44 102.404C1132.1 89.072 1141.57 78.8099 1153.85 71.6176C1166.13 64.4253 1180.52 60.8292 1197.01 60.8292C1208.41 60.8292 1218.71 62.408 1227.9 65.5656C1237.13 68.7232 1244.99 73.4595 1251.48 79.7747C1257.97 86.0898 1262.97 93.9838 1266.47 103.457L1239.9 115.297C1236.39 104.948 1231.3 97.3519 1224.64 92.5102C1217.97 87.7037 1209.29 85.3004 1198.59 85.3004C1187.89 85.3004 1178.5 87.844 1170.43 92.9313C1162.36 98.0185 1156.08 105.386 1151.59 115.034C1147.14 124.682 1144.91 136.436 1144.91 150.294C1144.91 163.977 1147.01 175.677 1151.22 185.396C1155.43 195.149 1161.49 202.569 1169.38 207.657C1177.27 212.744 1186.75 215.287 1197.8 215.287C1208.5 215.287 1217.74 212.516 1225.53 206.972C1233.36 201.464 1238.93 193.184 1242.27 182.133ZM1358.31 102.93C1371.11 102.93 1382.41 105.649 1392.2 111.087C1402.06 116.525 1409.74 124.367 1415.25 134.611C1420.79 144.891 1423.56 157.135 1423.56 171.344C1423.56 185.553 1420.79 197.78 1415.25 208.025C1409.74 218.305 1402.06 226.163 1392.2 231.601C1382.41 237.04 1371.11 239.759 1358.31 239.759C1345.47 239.759 1334.15 237.04 1324.36 231.601C1314.54 226.163 1306.82 218.305 1301.21 208.025C1295.59 197.78 1292.79 185.553 1292.79 171.344C1292.79 157.135 1295.59 144.891 1301.21 134.611C1306.82 124.367 1314.54 116.525 1324.36 111.087C1334.15 105.649 1345.47 102.93 1358.31 102.93ZM1358.31 125.033C1350.41 125.033 1343.69 126.823 1338.15 130.401C1332.61 134.015 1328.36 139.242 1325.42 146.084C1322.43 152.925 1320.94 161.345 1320.94 171.344C1320.94 181.168 1322.43 189.536 1325.42 196.447C1328.36 203.394 1332.61 208.656 1338.15 212.235C1343.69 215.849 1350.41 217.656 1358.31 217.656C1366.2 217.656 1372.87 215.849 1378.31 212.235C1383.71 208.656 1387.9 203.394 1390.88 196.447C1393.9 189.536 1395.41 181.168 1395.41 171.344C1395.41 161.345 1393.9 152.925 1390.88 146.084C1387.9 139.242 1383.71 134.015 1378.31 130.401C1372.87 126.823 1366.2 125.033 1358.31 125.033Z" fill="black"/>
</g>
</g>
</g>
</g>
<g clip-path="url(#clip7_19_2)">
<g clip-path="url(#clip8_19_2)">
<path d="M77.8 278C35.3834 278 1 243.617 1 201.2V98.8C1 56.3834 35.3834 22 77.8 22H180.2C222.617 22 257 56.3834 257 98.8V201.2C257 243.617 222.617 278 180.2 278H77.8Z" fill="#56FFA6"/>
<g clip-path="url(#clip9_19_2)">
<g clip-path="url(#clip10_19_2)">
<path d="M198.638 96.5435C195.849 96.5364 193.087 97.0823 190.51 98.1498C187.934 99.2173 185.595 100.785 183.628 102.763C183.101 103.294 182.736 103.963 182.574 104.694C181.873 104.852 181.2 105.196 180.651 105.746L94.5942 191.798C94.1893 192.203 93.877 192.691 93.679 193.228L83.4134 221.099C81.2171 227.061 83.2611 230.322 84.6746 231.738C85.6412 232.705 87.4718 233.968 90.439 233.966C91.8109 233.966 93.4279 233.695 95.3138 233.001L123.104 222.761C123.672 222.566 124.188 222.243 124.612 221.818L210.673 135.762C211.207 135.228 211.562 134.558 211.724 133.834C212.452 133.673 213.12 133.309 213.65 132.784C217.659 128.774 219.867 123.442 219.867 117.771C219.867 112.099 217.659 106.77 213.648 102.761C211.681 100.784 209.342 99.2161 206.766 98.1489C204.189 97.0818 201.427 96.5361 198.638 96.5435ZM121.813 213.431L111.292 202.906C110.925 202.539 110.489 202.248 110.01 202.049C109.53 201.851 109.016 201.748 108.496 201.749C107.977 201.749 107.463 201.851 106.983 202.05C106.504 202.249 106.068 202.54 105.701 202.907C105.334 203.274 105.043 203.71 104.844 204.19C104.646 204.67 104.543 205.184 104.543 205.703C104.544 206.222 104.646 206.736 104.845 207.216C105.043 207.696 105.335 208.131 105.702 208.498L114.649 217.449L92.5779 225.582C91.4254 226.007 90.7098 226.055 90.3638 226.049C90.35 225.691 90.4054 224.985 90.8304 223.833L100.797 196.776L183.446 114.129L202.283 132.964L121.813 213.431ZM208.055 127.192C207.994 127.255 207.949 127.326 207.891 127.394L189.015 108.519C189.08 108.462 189.153 108.416 189.218 108.355C191.733 105.84 195.08 104.453 198.638 104.453C202.196 104.453 205.541 105.839 208.057 108.355C209.297 109.589 210.281 111.056 210.951 112.672C211.62 114.288 211.963 116.021 211.96 117.771C211.96 121.329 210.574 124.676 208.055 127.192Z" fill="white" stroke="white" stroke-width="2"/>
<path d="M71.9281 218.088C58.1536 210.712 50.7386 199.781 51.5827 188.098C52.5652 174.466 64.7107 161.82 83.275 155.097C103.812 147.662 115.746 128.752 112.301 109.114C110.26 97.4825 102.986 87.0093 91.8208 79.622C79.3391 71.3648 62.0954 67 41.9536 67C40.9051 67 39.8994 67.4165 39.158 68.158C38.4165 68.8994 38 69.9051 38 70.9536C38 72.0022 38.4165 73.0078 39.158 73.7493C39.8994 74.4907 40.9051 74.9073 41.9536 74.9073C67.9329 74.9073 99.9039 84.224 104.512 110.48C107.325 126.518 97.7097 141.459 80.5845 147.662C58.715 155.579 44.9268 170.482 43.6952 187.526C42.6178 202.463 51.5471 216.143 68.1958 225.058C68.6541 225.311 69.1581 225.471 69.6786 225.528C70.1991 225.585 70.7257 225.538 71.2278 225.389C71.73 225.241 72.1977 224.994 72.6037 224.664C73.0098 224.333 73.3462 223.926 73.5933 223.464C73.8405 223.002 73.9935 222.496 74.0435 221.975C74.0935 221.454 74.0394 220.928 73.8845 220.428C73.7296 219.928 73.4769 219.463 73.141 219.062C72.8052 218.66 72.3929 218.329 71.9281 218.088Z" fill="white" stroke="white"/>
</g>
</g>
</g>
</g>
</g>
</g>
</g>
<defs>
<clipPath id="clip0_19_2">
<rect width="1435" height="301" fill="white"/>
</clipPath>
<clipPath id="clip1_19_2">
<rect width="1432.39" height="299.209" fill="white" transform="translate(1.19763 0.689331)"/>
</clipPath>
<clipPath id="clip2_19_2">
<rect width="1432.39" height="299.209" fill="white" transform="translate(1.19763 0.689331)"/>
</clipPath>
<clipPath id="clip3_19_2">
<rect width="1090.94" height="178.929" fill="white" transform="translate(332.648 60.8292)"/>
</clipPath>
<clipPath id="clip4_19_2">
<rect width="1090.94" height="178.929" fill="white" transform="translate(332.648 60.8292)"/>
</clipPath>
<clipPath id="clip5_19_2">
<rect width="1090.94" height="178.929" fill="white" transform="translate(332.648 60.8292)"/>
</clipPath>
<clipPath id="clip6_19_2">
<rect width="1090.94" height="178.929" fill="white" transform="translate(332.648 60.8292)"/>
</clipPath>
<clipPath id="clip7_19_2">
<rect width="256" height="256" fill="white" transform="translate(1 22)"/>
</clipPath>
<clipPath id="clip8_19_2">
<rect width="256" height="256" fill="white" transform="translate(1 22)"/>
</clipPath>
<clipPath id="clip9_19_2">
<rect width="181.867" height="166.966" fill="white" transform="translate(38 67)"/>
</clipPath>
<clipPath id="clip10_19_2">
<rect width="181.867" height="166.966" fill="white" transform="translate(38 67)"/>
</clipPath>
</defs>
</svg>
