<svg xmlns="http://www.w3.org/2000/svg" version="1.1" xmlns:xlink="http://www.w3.org/1999/xlink" xmlns:svgjs="http://svgjs.dev/svgjs" width="2000" height="353" viewBox="0 0 2000 353"><g transform="matrix(1,0,0,1,-1.2121212121213603,-0.6705518787778146)"><svg viewBox="0 0 396 70" data-background-color="#000000" preserveAspectRatio="xMidYMid meet" height="353" width="2000" xmlns="http://www.w3.org/2000/svg" xmlns:xlink="http://www.w3.org/1999/xlink"><g id="tight-bounds" transform="matrix(1,0,0,1,0.24000000000003752,0.1329706275196827)"><svg viewBox="0 0 395.5199999999999 69.7340587449606" height="69.7340587449606" width="395.5199999999999"><g><svg viewBox="0 0 508.48671742575806 89.6512" height="69.7340587449606" width="395.5199999999999"><g transform="matrix(1,0,0,1,0,12.390288856729384)"><svg viewBox="0 0 395.52 64.87062228654123" height="64.87062228654123" width="395.52"><g id="textblocktransform"><svg viewBox="0 0 395.52 64.87062228654123" height="64.87062228654123" width="395.52" id="textblock"><g><svg viewBox="0 0 395.52 64.87062228654123" height="64.87062228654123" width="395.52"><g transform="matrix(1,0,0,1,0,0)"><svg width="395.52" viewBox="3.05 -33.5 207.29 34" height="64.87062228654123" data-palette-color="#ffffff"><path d="M27.15-10.45L32.25-8.75Q31.25-5.75 29.25-3.68 27.25-1.6 24.55-0.55 21.85 0.5 18.6 0.5L18.6 0.5Q13.85 0.5 10.35-1.55 6.85-3.6 4.95-7.4 3.05-11.2 3.05-16.5L3.05-16.5Q3.05-21.8 4.95-25.6 6.85-29.4 10.35-31.45 13.85-33.5 18.55-33.5L18.55-33.5Q21.8-33.5 24.43-32.6 27.05-31.7 28.9-29.9 30.75-28.1 31.75-25.4L31.75-25.4 26.7-23.15Q25.7-26.1 23.8-27.48 21.9-28.85 18.85-28.85L18.85-28.85Q15.8-28.85 13.5-27.4 11.2-25.95 9.93-23.2 8.65-20.45 8.65-16.5L8.65-16.5Q8.65-12.6 9.85-9.83 11.05-7.05 13.3-5.6 15.55-4.15 18.7-4.15L18.7-4.15Q21.75-4.15 23.98-5.73 26.2-7.3 27.15-10.45L27.15-10.45ZM52.8-9.25L52.8-16.05Q52.8-18.55 51.42-19.93 50.05-21.3 47.65-21.3L47.65-21.3Q45.4-21.3 43.8-20.25 42.2-19.2 41.45-16.85L41.45-16.85 36.95-18.75Q37.9-21.8 40.67-23.65 43.45-25.5 47.85-25.5L47.85-25.5Q50.85-25.5 53.15-24.53 55.45-23.55 56.77-21.6 58.1-19.65 58.1-16.6L58.1-16.6 58.1-5.45Q58.1-3.6 59.95-3.6L59.95-3.6Q60.85-3.6 61.7-3.85L61.7-3.85 61.4-0.15Q60.25 0.4 58.5 0.4L58.5 0.4Q56.9 0.4 55.62-0.18 54.35-0.75 53.62-1.93 52.9-3.1 52.9-4.85L52.9-4.85 52.9-5.2 54-5.25Q53.55-3.3 52.15-2.02 50.75-0.75 48.9-0.13 47.05 0.5 45.15 0.5L45.15 0.5Q42.8 0.5 40.92-0.25 39.05-1 37.97-2.53 36.9-4.05 36.9-6.3L36.9-6.3Q36.9-9.1 38.72-10.9 40.55-12.7 43.9-13.35L43.9-13.35 53.6-15.25 53.55-11.5 46.5-10.05Q44.4-9.65 43.35-8.9 42.3-8.15 42.3-6.7L42.3-6.7Q42.3-5.3 43.37-4.48 44.45-3.65 46.25-3.65L46.25-3.65Q47.5-3.65 48.67-3.95 49.85-4.25 50.8-4.93 51.75-5.6 52.27-6.68 52.8-7.75 52.8-9.25L52.8-9.25ZM72.2 0L66.85 0 66.85-25 71.6-25 71.95-18.5 71.25-19.2Q71.95-21.35 73.27-22.78 74.6-24.2 76.42-24.85 78.25-25.5 80.3-25.5L80.3-25.5Q82.95-25.5 85.07-24.48 87.2-23.45 88.45-21.4 89.7-19.35 89.7-16.2L89.7-16.2 89.7 0 84.35 0 84.35-14.55Q84.35-18.25 82.82-19.68 81.3-21.1 79-21.1L79-21.1Q77.35-21.1 75.8-20.33 74.25-19.55 73.22-17.85 72.2-16.15 72.2-13.3L72.2-13.3 72.2 0ZM106.99-4.65L114.24-25 119.84-25 109.89 0 104.04 0 94.04-25 99.89-25 106.99-4.65ZM138.84-9.25L138.84-16.05Q138.84-18.55 137.47-19.93 136.09-21.3 133.69-21.3L133.69-21.3Q131.44-21.3 129.84-20.25 128.24-19.2 127.49-16.85L127.49-16.85 122.99-18.75Q123.94-21.8 126.72-23.65 129.49-25.5 133.89-25.5L133.89-25.5Q136.89-25.5 139.19-24.53 141.49-23.55 142.81-21.6 144.14-19.65 144.14-16.6L144.14-16.6 144.14-5.45Q144.14-3.6 145.99-3.6L145.99-3.6Q146.89-3.6 147.74-3.85L147.74-3.85 147.44-0.15Q146.29 0.4 144.54 0.4L144.54 0.4Q142.94 0.4 141.67-0.18 140.39-0.75 139.67-1.93 138.94-3.1 138.94-4.85L138.94-4.85 138.94-5.2 140.04-5.25Q139.59-3.3 138.19-2.02 136.79-0.75 134.94-0.13 133.09 0.5 131.19 0.5L131.19 0.5Q128.84 0.5 126.97-0.25 125.09-1 124.02-2.53 122.94-4.05 122.94-6.3L122.94-6.3Q122.94-9.1 124.77-10.9 126.59-12.7 129.94-13.35L129.94-13.35 139.64-15.25 139.59-11.5 132.54-10.05Q130.44-9.65 129.39-8.9 128.34-8.15 128.34-6.7L128.34-6.7Q128.34-5.3 129.42-4.48 130.49-3.65 132.29-3.65L132.29-3.65Q133.54-3.65 134.72-3.95 135.89-4.25 136.84-4.93 137.79-5.6 138.31-6.68 138.84-7.75 138.84-9.25L138.84-9.25ZM175.89-10.45L180.99-8.75Q179.99-5.75 177.99-3.68 175.99-1.6 173.29-0.55 170.59 0.5 167.34 0.5L167.34 0.5Q162.59 0.5 159.09-1.55 155.59-3.6 153.69-7.4 151.79-11.2 151.79-16.5L151.79-16.5Q151.79-21.8 153.69-25.6 155.59-29.4 159.09-31.45 162.59-33.5 167.29-33.5L167.29-33.5Q170.54-33.5 173.16-32.6 175.79-31.7 177.64-29.9 179.49-28.1 180.49-25.4L180.49-25.4 175.44-23.15Q174.44-26.1 172.54-27.48 170.64-28.85 167.59-28.85L167.59-28.85Q164.54-28.85 162.24-27.4 159.94-25.95 158.66-23.2 157.39-20.45 157.39-16.5L157.39-16.5Q157.39-12.6 158.59-9.83 159.79-7.05 162.04-5.6 164.29-4.15 167.44-4.15L167.44-4.15Q170.49-4.15 172.71-5.73 174.94-7.3 175.89-10.45L175.89-10.45ZM197.94-25.5L197.94-25.5Q201.59-25.5 204.38-23.95 207.19-22.4 208.76-19.48 210.34-16.55 210.34-12.5L210.34-12.5Q210.34-8.45 208.76-5.53 207.19-2.6 204.38-1.05 201.59 0.5 197.94 0.5L197.94 0.5Q194.28 0.5 191.49-1.05 188.69-2.6 187.09-5.53 185.49-8.45 185.49-12.5L185.49-12.5Q185.49-16.55 187.09-19.48 188.69-22.4 191.49-23.95 194.28-25.5 197.94-25.5ZM197.94-21.3L197.94-21.3Q195.69-21.3 194.11-20.28 192.53-19.25 191.69-17.3 190.84-15.35 190.84-12.5L190.84-12.5Q190.84-9.7 191.69-7.73 192.53-5.75 194.11-4.73 195.69-3.7 197.94-3.7L197.94-3.7Q200.19-3.7 201.74-4.73 203.28-5.75 204.13-7.73 204.99-9.7 204.99-12.5L204.99-12.5Q204.99-15.35 204.13-17.3 203.28-19.25 201.74-20.28 200.19-21.3 197.94-21.3Z" opacity="1" transform="matrix(1,0,0,1,0,0)" fill="#ffffff" class="wordmark-text-0" data-fill-palette-color="primary" id="text-0"></path></svg></g></svg></g></svg></g></svg></g><g transform="matrix(1,0,0,1,410.8343970269175,0)"><svg viewBox="0 0 97.65232039884057 89.6512" height="89.6512" width="97.65232039884057"><g><svg xmlns:x="http://ns.adobe.com/Extensibility/1.0/" xmlns:i="http://ns.adobe.com/AdobeIllustrator/10.0/" xmlns:graph="http://ns.adobe.com/Graphs/1.0/" xmlns="http://www.w3.org/2000/svg" xmlns:xlink="http://www.w3.org/1999/xlink" xmlns:a="http://ns.adobe.com/AdobeSVGViewerExtensions/3.0/" version="1.1" x="0" y="0" viewBox="3.999999999999999 7.771 92 84.46200117225199" enable-background="new 0 0 100 100" xml:space="preserve" height="89.6512" width="97.65232039884057" class="icon-icon-0" data-fill-palette-color="accent" id="icon-0"><path d="M85.261 22.716A10.67 10.67 0 0 0 77.668 25.862 2 2 0 0 0 77.135 26.839C76.78 26.919 76.44 27.093 76.162 27.371L32.629 70.902A2 2 0 0 0 32.166 71.625L26.973 85.724C25.862 88.74 26.896 90.39 27.611 91.106 28.1 91.595 29.026 92.234 30.527 92.233 31.221 92.233 32.039 92.096 32.993 91.745L47.051 86.565A2 2 0 0 0 47.814 86.088L91.349 42.555C91.619 42.285 91.799 41.946 91.881 41.58A2 2 0 0 0 92.855 41.049C94.883 39.02 96 36.323 96 33.454S94.883 27.889 92.854 25.861A10.67 10.67 0 0 0 85.261 22.716M46.398 81.845L41.076 76.521A2 2 0 1 0 38.248 79.35L42.774 83.878 31.609 87.992C31.026 88.207 30.664 88.231 30.489 88.228 30.482 88.047 30.51 87.69 30.725 87.107H30.726L35.767 73.42 77.576 31.612 87.105 41.14zM90.025 38.22C89.994 38.252 89.971 38.288 89.942 38.322L80.393 28.774C80.426 28.745 80.463 28.722 80.496 28.691 81.768 27.419 83.461 26.717 85.261 26.717S88.753 27.418 90.026 28.691A6.7 6.7 0 0 1 92 33.454C92 35.254 91.299 36.947 90.025 38.22" fill="#56ffa6" data-fill-palette-color="accent"></path><path d="M21.163 84.201C14.195 80.47 10.444 74.94 10.871 69.03 11.368 62.134 17.512 55.737 26.903 52.336 37.292 48.575 43.329 39.009 41.586 29.075 40.554 23.191 36.874 17.893 31.226 14.156 24.912 9.979 16.189 7.771 6 7.771A2 2 0 0 0 6 11.771C19.142 11.771 35.315 16.484 37.646 29.766 39.069 37.879 34.205 45.437 25.542 48.575 14.479 52.58 7.504 60.119 6.881 68.741 6.336 76.297 10.853 83.217 19.275 87.727A2 2 0 1 0 21.163 84.201" fill="#56ffa6" data-fill-palette-color="accent"></path></svg></g></svg></g></svg></g><defs></defs></svg><rect width="395.5199999999999" height="69.7340587449606" fill="none" stroke="none" visibility="hidden"></rect></g></svg></g></svg>